# This file uses centimeters as units for non-parametric coordinates.

mtllib Cristal.mtl
g default
v 0.587859 0.382114 0.050945
v 0.587859 3.249871 0.050945
v -0.842264 3.249871 0.091692
v -0.842264 0.382114 0.091692
vt 0.741518 0.076529
vt 0.741518 0.149234
vt 0.777113 0.149234
vt 0.777113 0.076529
vn 0.028481 0.000000 0.999594
vn 0.028481 0.000000 0.999594
vn 0.028481 0.000000 0.999594
vn 0.028481 0.000000 0.999594
vn 0.028481 0.000000 0.999594
vn 0.028481 0.000000 0.999594
s off
g Cristal:node_id6root
usemtl Cristal:lambert5SG
f 1/1/1 2/2/2 3/3/3
f 3/3/4 4/4/5 1/1/6
