# This file uses centimeters as units for non-parametric coordinates.

mtllib Marco.mtl
g default
v 0.747222 3.556814 0.822345
v 0.747222 3.710668 0.822345
v -0.999111 3.710668 0.869156
v -0.999111 3.556814 0.869156
v 0.731579 3.523851 0.238778
v 0.746331 3.523851 0.789111
v -1.000002 3.523851 0.835922
v -1.014754 3.523851 0.285590
v 0.571875 0.489444 0.060002
v -0.858314 0.489444 0.098335
v -0.879634 0.465742 0.122820
v 0.594478 0.465742 0.083307
v 0.594478 3.380904 0.083307
v -0.879634 3.380904 0.122820
v -0.858314 3.357201 0.098335
v 0.571877 3.357201 0.060002
v -1.019021 3.531337 0.126557
v -1.019021 0.307830 0.126558
v 0.733865 0.307830 0.079571
v 0.733866 3.531337 0.079572
v 0.569314 0.489444 -0.035594
v -0.860876 0.489444 0.002741
v -0.858314 0.489444 0.098335
v 0.571875 0.489444 0.060002
v 0.571877 3.357201 0.060002
v -0.858314 3.357201 0.098335
v -0.860876 3.357201 0.002741
v 0.569314 3.357201 -0.035594
v -1.014754 3.523855 0.285583
v -1.024658 3.523858 -0.083899
v 0.721672 3.523858 -0.130710
v 0.731577 3.523858 0.238779
v 0.731575 0.307599 0.238778
v 0.721670 0.307831 -0.130711
v -1.024658 0.307831 -0.083900
v -1.014754 0.307599 0.285590
vt 0.900006 0.092517
vt 0.896106 0.092517
vt 0.896106 0.138811
vt 0.900006 0.138811
vt 0.915026 0.092517
vt 0.901188 0.092517
vt 0.901188 0.138811
vt 0.915026 0.138811
vt 0.917282 0.395284
vt 0.881774 0.395284
vt 0.881039 0.396044
vt 0.918018 0.396044
vt 0.918018 0.320948
vt 0.881039 0.320948
vt 0.881774 0.321708
vt 0.917282 0.321708
vt 0.877526 0.317151
vt 0.877526 0.399841
vt 0.921530 0.399841
vt 0.921530 0.317151
vt 0.254789 0.419948
vt 0.254789 0.455543
vt 0.257193 0.455543
vt 0.257193 0.419948
vt 0.257193 0.563843
vt 0.257193 0.528248
vt 0.254789 0.528248
vt 0.254789 0.563843
vt 0.927365 0.364517
vt 0.936656 0.364517
vt 0.936656 0.321053
vt 0.927364 0.321053
vt 0.927365 0.489516
vt 0.936656 0.489516
vt 0.936656 0.446053
vt 0.927365 0.446053
vn 0.042639 -0.173422 0.983924
vn 0.042639 0.173422 0.983924
vn 0.010133 0.173421 0.984796
vn 0.010133 0.173421 0.984796
vn 0.010133 -0.173422 0.984795
vn 0.042639 -0.173422 0.983924
vn 0.018503 -0.999829 -0.000496
vn 0.019278 -0.998289 0.055203
vn -0.016293 -0.998289 0.056157
vn -0.016293 -0.998289 0.056157
vn -0.018503 -0.999829 0.000496
vn 0.018503 -0.999829 -0.000496
vn 0.042639 -0.173422 0.983924
vn 0.010133 -0.173422 0.984795
vn -0.016293 -0.998289 0.056157
vn -0.016293 -0.998289 0.056157
vn 0.019278 -0.998289 0.055203
vn 0.042639 -0.173422 0.983924
vn 0.006620 0.968998 0.246980
vn 0.006620 0.968998 0.246979
vn 0.064363 0.020214 0.997722
vn 0.064363 0.020214 0.997722
vn -0.010818 0.020214 0.999737
vn 0.006620 0.968998 0.246980
vn -0.011533 -0.020596 0.999721
vn 0.065075 -0.020596 0.997668
vn 0.006620 -0.968998 0.246980
vn 0.006620 -0.968998 0.246980
vn 0.006620 -0.968997 0.246983
vn -0.011533 -0.020596 0.999721
vn 0.064363 0.020214 0.997722
vn 0.065075 -0.020596 0.997668
vn 0.026798 0.000000 0.999641
vn 0.026798 0.000000 0.999641
vn 0.026798 0.000001 0.999641
vn 0.064363 0.020214 0.997722
vn -0.010818 0.020214 0.999737
vn 0.064363 0.020214 0.997722
vn 0.026798 0.000001 0.999641
vn 0.026798 0.000001 0.999641
vn 0.026794 0.000001 0.999641
vn -0.010818 0.020214 0.999737
vn 0.026798 0.000000 0.999641
vn 0.065075 -0.020596 0.997668
vn -0.011533 -0.020596 0.999721
vn -0.011533 -0.020596 0.999721
vn 0.026793 0.000000 0.999641
vn 0.026798 0.000000 0.999641
vn -0.011533 -0.020596 0.999721
vn -0.010818 0.020214 0.999737
vn 0.026794 0.000001 0.999641
vn 0.026794 0.000001 0.999641
vn 0.026793 0.000000 0.999641
vn -0.011533 -0.020596 0.999721
vn 0.000000 1.000000 0.000000
vn 0.000000 1.000000 0.000000
vn 0.006620 0.968998 0.246979
vn 0.006620 0.968998 0.246979
vn 0.006620 0.968998 0.246980
vn 0.000000 1.000000 0.000000
vn 0.006620 -0.968997 0.246983
vn 0.006620 -0.968998 0.246980
vn 0.000000 -1.000000 -0.000000
vn 0.000000 -1.000000 -0.000000
vn 0.000000 -1.000000 -0.000000
vn 0.006620 -0.968997 0.246983
vn 0.000001 -1.000000 -0.000003
vn 0.000001 -1.000000 -0.000003
vn 0.000001 -1.000000 -0.000003
vn 0.000001 -1.000000 -0.000003
vn 0.000001 -1.000000 -0.000003
vn 0.000001 -1.000000 -0.000003
vn 0.000017 1.000000 0.000625
vn 0.000017 1.000000 0.000625
vn 0.000017 1.000000 0.000625
vn 0.000017 1.000000 0.000625
vn 0.000017 1.000000 0.000625
vn 0.000017 1.000000 0.000625
s off
g Ventana:node_id6root
usemtl Ventana:initialShadingGroup
f 1/1/1 2/2/2 3/3/3
f 3/3/4 4/4/5 1/1/6
f 5/5/7 6/6/8 7/7/9
f 7/7/10 8/8/11 5/5/12
f 1/1/13 4/4/14 7/7/15
f 7/7/16 6/6/17 1/1/18
f 9/9/19 10/10/20 11/11/21
f 11/11/22 12/12/23 9/9/24
f 13/13/25 14/14/26 15/15/27
f 15/15/28 16/16/29 13/13/30
f 11/11/31 14/14/32 17/17/33
f 17/17/34 18/18/35 11/11/36
f 12/12/37 11/11/38 18/18/39
f 18/18/40 19/19/41 12/12/42
f 17/17/43 14/14/44 13/13/45
f 13/13/46 20/20/47 17/17/48
f 13/13/49 12/12/50 19/19/51
f 19/19/52 20/20/53 13/13/54
f 21/21/55 22/22/56 23/23/57
f 23/23/58 24/24/59 21/21/60
f 25/25/61 26/26/62 27/27/63
f 27/27/64 28/28/65 25/25/66
f 29/29/67 30/30/68 31/31/69
f 31/31/70 32/32/71 29/29/72
f 33/33/73 34/34/74 35/35/75
f 35/35/76 36/36/77 33/33/78
